# Blender v2.74 (sub 0) OBJ File: ''
# www.blender.org
mtllib Tree_01.mtl
o Mesh1_Tree_Model
v 0.000000 0.000000 -1.180000
v 0.177000 0.600000 -1.003000
v 1.003000 0.600000 -1.003000
v 1.180000 0.000000 -1.180000
v 0.177000 0.600000 -0.177000
v 0.000000 0.000000 0.000000
v 0.082600 0.600000 -0.082600
v 1.097400 0.600000 -0.082600
v 1.003000 0.600000 -0.177000
v 1.180000 0.000000 0.000000
v 0.786697 0.000000 -0.393303
v 0.393303 0.000000 -0.393303
v 0.393303 0.000000 -0.786697
v 0.786697 0.000000 -0.786697
v 0.837838 -0.495868 -0.342162
v 0.837838 -0.495868 -0.837838
v 0.342162 -0.495868 -0.342162
v 0.342162 -0.495868 -0.837838
v 1.097400 0.600000 -1.097400
v 0.082600 0.600000 -1.097400
v 0.234820 1.343040 -0.234820
v 0.234820 1.343040 -0.945180
v 0.153636 1.343040 -0.153636
v 1.026360 1.343040 -0.153636
v 0.945180 1.343040 -0.234820
v 0.945180 1.343040 -0.945180
v 1.026360 1.343040 -1.026360
v 0.153636 1.343040 -1.026360
v 0.590000 2.663040 -0.590000
vt -0.080454 0.284347
vt -0.455909 0.284347
vt -0.536364 0.000000
vt 0.000000 0.000000
vt 0.536364 -0.000000
vt 0.455909 0.284347
vt 0.080454 0.284347
vt -0.080454 0.080454
vt -0.037545 0.037545
vt -0.080454 0.455909
vt -0.498818 0.037545
vt -0.455909 0.080454
vt 0.000000 -0.151761
vt 0.536364 -0.151761
vt 0.455909 0.132585
vt 0.080454 0.132585
vt -0.357590 0.178774
vt -0.536364 0.536364
vt -0.178774 0.178774
vt -0.178774 0.357590
vt 0.000000 0.536364
vt -0.357590 0.357590
vt -0.106736 0.619473
vt -0.429627 0.619473
vt -0.498818 0.274714
vt -0.037545 0.274714
vt -0.455909 0.455909
vt -0.498818 0.498818
vt -0.037545 0.498818
vt 0.498818 0.274714
vt 0.429627 0.619473
vt 0.106736 0.619473
vt 0.037545 0.274714
vt -0.106736 0.106736
vt -0.069835 0.069835
vt -0.106736 0.429627
vt -0.466529 0.069835
vt -0.429627 0.106736
vt 0.037545 0.167069
vt 0.498818 0.167069
vt 0.429627 0.511829
vt 0.106736 0.511829
vt -0.498818 0.167069
vt -0.037545 0.167069
vt -0.106736 0.511829
vt -0.429627 0.511829
vt -0.466529 0.466529
vt -0.429627 0.429627
vt -0.069835 0.466529
vt -0.268182 1.233480
vt -0.466529 0.601542
vt -0.069835 0.601542
vt -0.268182 1.065130
vt -0.466529 0.433192
vt -0.069835 0.433192
vt 0.466529 0.433192
vt 0.268182 1.065130
vt 0.069835 0.433192
vt 0.466529 0.601542
vt 0.268182 1.233480
vt 0.069835 0.601542
vt -0.080454 0.132585
vt -0.455909 0.132585
vt -0.536364 -0.151761
vt 0.155528 -0.263275
vt 0.380836 -0.263275
vt 0.357590 -0.036685
vt 0.178774 -0.036685
vt -0.155528 0.155528
vt -0.155528 0.380836
vt -0.380836 0.380836
vt -0.380836 0.155528
vt -0.178774 0.018341
vt -0.357590 0.018341
vt -0.380836 -0.208249
vt -0.155528 -0.208249
vt -0.155528 -0.263275
vt -0.178774 -0.036685
vt -0.357590 -0.036685
vt -0.380836 -0.263275
vt 0.380836 -0.208249
vt 0.357590 0.018341
vt 0.178774 0.018341
vt 0.155528 -0.208249
vn -0.959100 0.282900 0.000000
vn 0.000000 0.282900 0.959100
vn -0.000000 -1.000000 -0.000000
vn 0.959100 0.282900 0.000000
vn -0.979700 0.200700 0.000000
vn 0.000000 0.200700 0.979700
vn 0.979700 0.200700 0.000000
vn 0.000000 0.200700 -0.979700
vn -0.949500 0.313900 0.000000
vn 0.000000 0.313900 -0.949500
vn 0.949500 0.313900 0.000000
vn 0.000000 0.313900 0.949500
vn 0.000000 0.282900 -0.959100
vn 0.994700 0.102600 0.000000
vn -0.994700 0.102600 0.000000
vn 0.000000 0.102600 -0.994700
vn 0.000000 0.102600 0.994700
usemtl Green_Roof
s 1
f 5/1/1 2/2/1 1/3/1 6/4/1
f 6/4/2 10/5/2 9/6/2 5/7/2
f 5/8/3 7/9/3 2/10/3
f 7/9/3 5/8/3 8/11/3
f 8/11/3 5/8/3 9/12/3
f 10/13/4 4/14/4 3/15/4 9/16/4
f 10/3/3 11/17/3 4/18/3
f 10/3/3 12/19/3 11/17/3
f 6/4/3 12/19/3 10/3/3
f 12/19/3 6/4/3 13/20/3
f 1/21/3 13/20/3 6/4/3
f 13/20/3 1/21/3 4/18/3
f 13/20/3 4/18/3 14/22/3
f 14/22/3 4/18/3 11/17/3
f 12/19/3 13/20/3 14/22/3 11/17/3
f 21/23/5 22/24/5 20/25/5 7/26/5
f 3/27/3 19/28/3 9/12/3
f 2/10/3 19/28/3 3/27/3
f 2/10/3 20/29/3 19/28/3
f 20/29/3 2/10/3 7/9/3
f 8/30/6 25/31/6 21/32/6 7/33/6
f 21/34/3 23/35/3 22/36/3
f 23/35/3 21/34/3 24/37/3
f 24/37/3 21/34/3 25/38/3
f 8/39/7 19/40/7 26/41/7 25/42/7
f 19/43/8 20/44/8 22/45/8 26/46/8
f 8/11/3 9/12/3 19/28/3
f 22/36/3 27/47/3 26/48/3
f 22/36/3 28/49/3 27/47/3
f 28/49/3 22/36/3 23/35/3
f 29/50/9 28/51/9 23/52/9
f 29/53/10 27/54/10 28/55/10
f 27/56/11 29/57/11 24/58/11
f 24/59/12 29/60/12 23/61/12
f 24/37/3 25/38/3 27/47/3
f 26/48/3 27/47/3 25/38/3
f 1/13/13 2/62/13 3/63/13 4/64/13
usemtl Wood
f 15/65/14 16/66/14 14/67/14 11/68/14
f 17/69/3 18/70/3 16/71/3 15/72/3
f 12/73/15 13/74/15 18/75/15 17/76/15
f 18/77/16 13/78/16 14/79/16 16/80/16
f 15/81/17 11/82/17 12/83/17 17/84/17
